<?xml version="1.0" encoding="iso-8859-1"?>
<!-- Generator: Adobe Illustrator 16.0.0, SVG Export Plug-In . SVG Version: 6.00 Build 0)  -->
<!DOCTYPE svg PUBLIC "-//W3C//DTD SVG 1.1//EN" "http://www.w3.org/Graphics/SVG/1.1/DTD/svg11.dtd">
<svg xmlns="http://www.w3.org/2000/svg" xmlns:xlink="http://www.w3.org/1999/xlink" version="1.1" id="Capa_1" x="0px" y="0px" width="512px" height="512px" viewBox="0 0 594.875 594.875" style="enable-background:new 0 0 594.875 594.875;" xml:space="preserve">
<g>
	<g>
		<path d="M586.478,61.817c0.827-15.871-4.979-31.59-15.931-43.127C559.573,7.13,544.139,0.5,528.2,0.5h-46.042h-42.84h-67.54    h-36.88h-74.921h-36.88h-67.54h-42.84H66.675c-15.938,0-31.373,6.63-42.346,18.19C13.377,30.226,7.571,45.946,8.398,61.817    c2.305,44.245,13.06,84.618,31.964,119.998c15.337,28.703,35.924,53.966,61.189,75.086c4.316,3.608,8.618,6.966,12.87,10.096    c2.132,15.438,6.261,30.483,12.379,44.947c9.017,21.318,21.916,40.453,38.338,56.877c16.423,16.424,35.559,29.322,56.877,38.338    c17.278,7.309,35.385,11.785,54.003,13.396v41.961c-18.942,2.984-36.627,9.896-51.203,20.189    c-24.131,17.043-37.971,42.131-37.971,68.83v42.84h42.84h135.507h42.841v-42.84c0-26.699-13.84-51.787-37.972-68.83    c-14.575-10.293-32.261-17.205-51.202-20.189v-41.961c18.618-1.611,36.725-6.088,54.002-13.396    c21.318-9.016,40.454-21.914,56.877-38.338c16.424-16.424,29.322-35.559,38.339-56.877c6.118-14.463,10.247-29.508,12.379-44.947    c4.252-3.129,8.554-6.488,12.87-10.096c25.265-21.12,45.852-46.384,61.188-75.086C573.418,146.435,584.172,106.062,586.478,61.817    z M427.771,297.197c-21.117,47.825-68.951,81.206-124.589,81.206h-11.489c-55.638,0-103.472-33.381-124.589-81.206    c-7.315-16.565-11.423-34.862-11.538-54.108c-0.002-0.275-0.01-0.548-0.01-0.824V43.339h67.54h43.322h62.038h43.321h67.54v198.925    c0,0.275-0.009,0.549-0.011,0.824C439.194,262.334,435.086,280.631,427.771,297.197z M51.18,59.587    c-0.461-8.843,6.64-16.248,15.495-16.248h46.042v165.568C82.33,177.658,54.859,130.193,51.18,59.587z M365.191,551.535H229.684    c0-24.682,26.459-44.996,60.437-47.572h14.635C338.732,506.539,365.191,526.854,365.191,551.535z M543.695,59.587    c-3.679,70.605-31.149,118.071-61.536,149.32V43.339h46.042C537.056,43.339,544.156,50.744,543.695,59.587z" fill="#FFFFFF"/>
		<path d="M408.532,594.875H186.344v-43.34c0-26.864,13.917-52.101,38.182-69.238c14.411-10.177,32.036-17.159,50.992-20.208    v-41.076c-18.523-1.651-36.588-6.156-53.698-13.394c-21.377-9.041-40.567-21.976-57.036-38.445    c-16.47-16.471-29.405-35.66-38.445-57.036c-6.07-14.351-10.237-29.445-12.385-44.864c-4.348-3.205-8.628-6.565-12.725-9.989    c-25.313-21.161-45.94-46.473-61.309-75.235C20.981,146.604,10.208,106.161,7.898,61.843C7.064,45.835,12.92,29.981,23.966,18.346    C35.033,6.687,50.6,0,66.675,0H528.2c16.075,0,31.642,6.687,42.709,18.346c11.046,11.636,16.902,27.49,16.067,43.497    c-2.31,44.319-13.083,84.763-32.021,120.207c-15.368,28.761-35.996,54.074-61.31,75.235c-4.096,3.424-8.376,6.784-12.724,9.989    c-2.148,15.42-6.315,30.514-12.385,44.864c-9.042,21.377-21.977,40.566-38.446,57.036c-16.469,16.47-35.658,29.404-57.036,38.445    c-17.109,7.237-35.174,11.743-53.696,13.394v41.076c18.957,3.049,36.581,10.031,50.99,20.208    c24.267,17.138,38.184,42.374,38.184,69.238V594.875z M187.344,593.875h220.188v-42.34c0-26.535-13.763-51.474-37.76-68.422    c-14.393-10.163-32.025-17.115-50.992-20.104l-0.422-0.066v-42.848l0.457-0.039c18.578-1.608,36.696-6.103,53.851-13.359    c21.258-8.99,40.341-21.853,56.718-38.23c16.378-16.378,29.241-35.461,38.231-56.718c6.064-14.335,10.217-29.415,12.345-44.821    l0.028-0.209l0.171-0.125c4.39-3.231,8.711-6.621,12.846-10.077c25.214-21.078,45.761-46.291,61.067-74.938    c18.869-35.314,29.604-75.616,31.906-119.788c0.819-15.734-4.938-31.319-15.794-42.757C559.305,7.573,544.002,1,528.2,1H66.675    C50.873,1,35.57,7.573,24.691,19.034C13.834,30.471,8.077,46.056,8.897,61.791c2.301,44.17,13.036,84.473,31.905,119.788    c15.308,28.648,35.854,53.861,61.069,74.938c4.134,3.456,8.456,6.846,12.846,10.077l0.17,0.125l0.029,0.209    c2.127,15.405,6.28,30.484,12.344,44.821c8.99,21.256,21.854,40.339,38.231,56.718c16.377,16.378,35.46,29.24,56.718,38.23    c17.154,7.257,35.272,11.751,53.851,13.359l0.457,0.039v42.848l-0.422,0.066c-18.966,2.988-36.599,9.939-50.992,20.104    c-23.997,16.948-37.759,41.887-37.759,68.422V593.875z M365.691,552.035H229.184v-0.5c0-24.772,26.181-45.438,60.899-48.071    l14.672-0.001c34.755,2.634,60.936,23.3,60.936,48.072V552.035z M230.188,551.035h134.5c-0.353-24.021-26.015-43.999-59.97-46.574    l-14.597,0.002C256.203,507.036,230.54,527.014,230.188,551.035z M303.183,378.902h-11.489    c-54.101,0-103.185-31.992-125.046-81.503c-7.572-17.147-11.468-35.419-11.58-54.308l-0.01-0.827V42.839h284.761l-0.011,200.252    c-0.111,18.887-4.007,37.159-11.579,54.307C406.367,346.91,357.283,378.902,303.183,378.902z M156.057,43.839v198.425l0.01,0.82    c0.111,18.751,3.979,36.889,11.495,53.91c21.702,49.15,70.426,80.908,124.131,80.908h11.489    c53.705,0,102.43-31.758,124.132-80.908c7.516-17.022,11.383-35.16,11.493-53.909l0.011-0.821V43.839H156.057z M481.659,210.139    v-167.3h46.542c4.444,0,8.577,1.775,11.637,5c3.038,3.201,4.586,7.382,4.356,11.774c-3.149,60.447-23.9,110.794-61.677,149.643    L481.659,210.139z M482.659,43.839v163.832c37.059-38.549,57.425-88.372,60.537-148.11c0.214-4.116-1.235-8.035-4.083-11.034    c-2.87-3.023-6.745-4.688-10.912-4.688H482.659z M113.217,210.139l-0.858-0.883C74.582,170.407,53.83,120.06,50.681,59.613    c-0.229-4.392,1.318-8.574,4.356-11.774c3.061-3.224,7.193-5,11.638-5h46.542V210.139z M66.675,43.839    c-4.167,0-8.043,1.665-10.913,4.688c-2.847,3-4.297,6.918-4.083,11.034c3.112,59.738,23.478,109.561,60.538,148.11V43.839H66.675z    " fill="#FFFFFF"/>
	</g>
</g>
<g>
</g>
<g>
</g>
<g>
</g>
<g>
</g>
<g>
</g>
<g>
</g>
<g>
</g>
<g>
</g>
<g>
</g>
<g>
</g>
<g>
</g>
<g>
</g>
<g>
</g>
<g>
</g>
<g>
</g>
</svg>
