<?xml version="1.0" encoding="iso-8859-1"?>
<!-- Generator: Adobe Illustrator 19.0.0, SVG Export Plug-In . SVG Version: 6.00 Build 0)  -->
<svg xmlns="http://www.w3.org/2000/svg" xmlns:xlink="http://www.w3.org/1999/xlink" version="1.1" id="Capa_1" x="0px" y="0px" viewBox="0 0 457.245 457.245" style="enable-background:new 0 0 457.245 457.245;" xml:space="preserve" width="512px" height="512px">
<g>
	<g>
		<path d="M11.231,456.442c-2.884,0-5.769-1.097-7.962-3.312c-4.376-4.409-4.354-11.516,0.044-15.881l305.6-303.68    c4.409-4.387,11.494-4.343,15.881,0.044c4.365,4.398,4.343,11.516-0.044,15.881l-305.6,303.68    C16.956,455.345,14.093,456.442,11.231,456.442z" fill="#FFFFFF"/>
		<path d="M334.839,229.743c-0.526,0-1.053-0.044-1.579-0.132c-4.584-0.636-8.313-4.058-9.366-8.588l-16.276-70.598l-70.609-16.276    c-4.53-1.042-7.951-4.771-8.599-9.377c-0.647-4.595,1.601-9.125,5.67-11.384l64.939-36.083l-7.129-64.029    c-0.526-4.738,1.996-9.29,6.295-11.362c4.321-2.062,9.454-1.206,12.81,2.183l42.751,42.73l64.862-21.65    c4.058-1.338,8.489-0.285,11.494,2.709c3.005,3.005,4.058,7.447,2.72,11.483l-21.606,64.917l42.73,42.73    c3.378,3.367,4.255,8.5,2.194,12.799c-2.084,4.31-6.624,6.789-11.362,6.306l-64.072-7.074l-36.039,64.906    C342.648,227.549,338.875,229.743,334.839,229.743z M270.526,118.828l48.981,11.286c4.19,0.965,7.458,4.233,8.423,8.423    l11.275,48.959l25.489-45.888c2.194-3.959,6.602-6.142,11.055-5.714l39.703,4.387l-25.028-25.017    c-3.005-3.005-4.058-7.458-2.72-11.483l16.715-50.187l-50.144,16.736c-4.036,1.382-8.467,0.296-11.494-2.709l-25.028-25.017    l4.409,39.648c0.505,4.497-1.755,8.862-5.703,11.055L270.526,118.828z" fill="#FFFFFF"/>
	</g>
</g>
<g>
</g>
<g>
</g>
<g>
</g>
<g>
</g>
<g>
</g>
<g>
</g>
<g>
</g>
<g>
</g>
<g>
</g>
<g>
</g>
<g>
</g>
<g>
</g>
<g>
</g>
<g>
</g>
<g>
</g>
</svg>
